<svg xmlns="http://www.w3.org/2000/svg" viewBox="0 0 15.23 16"><defs><style>.cls-1{fill:#876348;}</style></defs><title>birdSmall</title><g id="Lager_2" data-name="Lager 2"><g id="Lager_1-2" data-name="Lager 1"><g id="drumstick-bite"><path id="drumstick-bite-2" data-name="drumstick-bite" class="cls-1" d="M13.76,1.55a4.86,4.86,0,0,0-7.12,0A6.13,6.13,0,0,0,4.76,6V8.68L3.55,10a1,1,0,0,1-1.09.19,1.76,1.76,0,0,0-2.33,1,1.94,1.94,0,0,0,.4,2,1.71,1.71,0,0,0,1.67.48,1.92,1.92,0,0,0,.45,1.75,1.73,1.73,0,0,0,2.53,0,2,2,0,0,0,.4-2,1.11,1.11,0,0,1,.18-1.15L7,11H9.52a5.24,5.24,0,0,0,1.84-.32A3.46,3.46,0,0,1,11.41,6a3.06,3.06,0,0,1,3.81-.51,5.39,5.39,0,0,0-1.46-3.9Z"/></g></g></g></svg>