<svg id="b32d2861-1f5a-4f34-9103-554651f9408f" data-name="Lager 1" xmlns="http://www.w3.org/2000/svg" viewBox="0 0 68 65"><rect x="11.9" y="10.29" width="44.39" height="44.39" rx="21.79" style="fill:#e6ead0"/><path d="M23.22,40.63c-1.73,4-3.75,5.43-5.32,6-.68.24-.88.18-2.34.61-3.33,1-5,1.48-5.52,2.69-.83,1.94,1.15,5.33,3.17,5.5a3.16,3.16,0,0,0,2.55-.86,3.26,3.26,0,0,0-1,3.14c.39,2.29,3.78,4,6.11,3.19,2.49-.84,2.63-4.22,2.75-5.61.25-3.07-.84-4-.37-6.14.34-1.48,1.4-3.5,4.89-5.5" style="fill:#e9d4b7"/><path d="M44.89,35.83a3.57,3.57,0,0,1,1.54-2.41A4.06,4.06,0,0,1,52,27.82a3.58,3.58,0,0,1,3.49-2.76l.41,0a12.72,12.72,0,0,0,.45-4c-.27-4.42-2.66-9.32-7.12-11.66C42.34,5.81,31,14.12,27,20.33c-4.34,6.72-2.25,15.34-1.88,16.36l-5,6.38,5.78,4.72c.45-1.08,3.19-5.37,4.54-5.81A8.16,8.16,0,0,1,33,41.9c3.15.53,9.58-.91,10.28-1.08a8.85,8.85,0,0,0,3-1.56A3.6,3.6,0,0,1,44.89,35.83Z" style="fill:#876348"/><path d="M30.13,33.89a2.23,2.23,0,0,1,2.94-.5,1.89,1.89,0,0,1,.5,1.48" style="fill:none;stroke:#fff;stroke-linecap:round;stroke-miterlimit:10;stroke-width:0.7356647351013125px"/><path d="M43.16,14.07a1.64,1.64,0,0,0-1.27-.36,1.84,1.84,0,0,0-1.19,1" style="fill:none;stroke:#fff;stroke-linecap:round;stroke-miterlimit:10;stroke-width:0.7356647351013125px"/><path d="M47.28,20.81a1.77,1.77,0,0,1,1.49.32,1.91,1.91,0,0,1,.49,1.48" style="fill:none;stroke:#fff;stroke-linecap:round;stroke-miterlimit:10;stroke-width:0.7356647351013125px"/><path d="M43.19,29.43a2.22,2.22,0,0,0-1.29-2.69,1.92,1.92,0,0,0-1.49.45" style="fill:none;stroke:#fff;stroke-linecap:round;stroke-miterlimit:10;stroke-width:0.7356647351013125px"/><path d="M42,39a1.71,1.71,0,0,0-1.09-1,1.92,1.92,0,0,0-1.49.45" style="fill:none;stroke:#fff;stroke-linecap:round;stroke-miterlimit:10;stroke-width:0.7356647351013125px"/><path d="M32.05,22.21a1.94,1.94,0,0,1,1.65-.32A1.63,1.63,0,0,1,34.61,23" style="fill:none;stroke:#fff;stroke-linecap:round;stroke-miterlimit:10;stroke-width:0.6988538024069882px"/></svg>