<svg xmlns="http://www.w3.org/2000/svg" viewBox="0 0 15.8 8.78"><defs><style>.cls-1{fill:#5c98a2;}</style></defs><title>fishSmall</title><g id="Lager_2" data-name="Lager 2"><g id="Lager_1-2" data-name="Lager 1"><g id="fish"><path id="fish-2" data-name="fish" class="cls-1" d="M9,0A8.41,8.41,0,0,0,3.15,2.79L.75,1A.46.46,0,0,0,.1,1a.49.49,0,0,0-.1.34l.67,3L0,7.4a.45.45,0,0,0,.4.5.42.42,0,0,0,.34-.1L3.15,6A8.45,8.45,0,0,0,9,8.78c3.77,0,6.83-3.52,6.83-4.39S12.74,0,9,0Zm2.4,5A.66.66,0,1,1,12,4.34h0a.66.66,0,0,1-.66.66Z"/></g></g></g></svg>