<svg id="e91578ae-625d-4136-9538-40e3886f4110" data-name="Lager 1" xmlns="http://www.w3.org/2000/svg" viewBox="0 0 68 65"><rect x="11.9" y="10.29" width="44.39" height="44.39" rx="21.79" style="fill:#e6ead0"/><path d="M16.42,30.31s6.65-15,27.29-10.85c14.65,3,16.44,10.85,16.44,10.85S48.26,42.9,34.27,42.55s-16.8-6.65-16.8-6.65L1,46.4s6.3-8.75,5.6-13.3S1,21.56,1,21.56Z" style="fill:#5c98a2"/><path d="M41.09,31.18c0,2.06.54,5,3.21,6.65,2,1.23,4.79,1.4,7.81,1.08" style="fill:none;stroke:#fff;stroke-linecap:round;stroke-miterlimit:10;stroke-width:0.9427278567737225px"/><path d="M50.88,28.06a1.77,1.77,0,1,0-.42,1.69A1.64,1.64,0,0,0,50.88,28.06Z" style="fill:#fff"/><path d="M34.79,20.34c-1.95-.08-3.21,1.2-3.15,2.09s1.21,1.73,2.8,1.75" style="fill:none;stroke:#fff;stroke-linecap:round;stroke-miterlimit:10;stroke-width:0.6996478694701488px"/><path d="M34.79,25.93c-1.77.74-2.47,2.36-2.1,3.15s2.12,1.32,3.85.35" style="fill:none;stroke:#fff;stroke-linecap:round;stroke-miterlimit:10;stroke-width:0.6996478694701488px"/><path d="M36.54,31.53c-1.49.3-2.49,1.3-2.45,2.1s1.5,2.07,3.5,1.75" style="fill:none;stroke:#fff;stroke-linecap:round;stroke-miterlimit:10;stroke-width:0.6996478694701488px"/><path d="M28.14,24.53c-1.71.65-2.91,1.69-2.8,2.45s2,1.69,4.55,1.4" style="fill:none;stroke:#fff;stroke-linecap:round;stroke-miterlimit:10;stroke-width:0.6996478694701488px"/><path d="M29.54,30.48c-1.43.78-2.31,2-2.1,2.8s2.18,1.82,4.55,1" style="fill:none;stroke:#fff;stroke-linecap:round;stroke-miterlimit:10;stroke-width:0.6996478694701488px"/><path d="M30.59,36.78c-1.71.73-2.41,2.15-2.1,2.8s1.65.92,3.15.35" style="fill:none;stroke:#fff;stroke-linecap:round;stroke-miterlimit:10;stroke-width:0.6996478694701488px"/><path d="M24.3,29.43c-1.69.51-2.61,1.54-2.45,2.1s1.32.91,2.8.7" style="fill:none;stroke:#fff;stroke-linecap:round;stroke-miterlimit:10;stroke-width:0.6996478694701488px"/><path d="M25.34,35a2,2,0,0,0-2.09,2.1,2,2,0,0,0,2.44,1.4" style="fill:none;stroke:#fff;stroke-linecap:round;stroke-miterlimit:10;stroke-width:0.6996478694701488px"/><path d="M5,26a21.55,21.55,0,0,0,10.26,5.75" style="fill:none;stroke:#fff;stroke-linecap:round;stroke-miterlimit:10;stroke-width:0.6996478694701488px"/><path d="M8.55,31.88c1.1.26,2.27.49,3.5.7.84.14,1.66.25,2.45.35" style="fill:none;stroke:#fff;stroke-linecap:round;stroke-miterlimit:10;stroke-width:0.6996478694701488px"/><path d="M8.6,35.49l4.81-.92" style="fill:none;stroke:#fff;stroke-linecap:round;stroke-miterlimit:10;stroke-width:0.6996478694701488px"/><path d="M4.88,42.55a13.34,13.34,0,0,1,4.8-4.85,12.89,12.89,0,0,1,4.47-1.62" style="fill:none;stroke:#fff;stroke-linecap:round;stroke-miterlimit:10;stroke-width:0.5247359021026112px"/></svg>