<svg id="a183efe1-d378-418e-af22-31c73487e994" data-name="Lager 1" xmlns="http://www.w3.org/2000/svg" viewBox="0 0 68 65"><rect x="11.9" y="10.29" width="44.39" height="44.39" rx="21.79" style="fill:#e6ead0"/><path d="M63.47,19.27a5.49,5.49,0,0,1-1.59-1.7,18.93,18.93,0,0,1-.37-4.06,6.85,6.85,0,0,1-2.2-.14,5.68,5.68,0,0,1-.83-1.95c-.19-.62-.33-.64-.35.13a45.1,45.1,0,0,1-.46,6.11,5.13,5.13,0,0,0-.46-.47c-2.1-1.78-4.05-1.6-5.5-.38s-9.88,9.65-12,11.48-6.41,4.81-11.06,5.6-13.3,2.47-15.23,2.21c-1.65-.22-4.48,1.49-5.45,3.75-.69-1.15-1.63-2.74-2.29-4C5.35,35.29,5,35,5,35.76a6.54,6.54,0,0,1-.39,2.39,16.9,16.9,0,0,1-2.87,2.62,8,8,0,0,1,1.13,2,5.68,5.68,0,0,1-1,1.85c-.36.52-.3.66.29.23a34.81,34.81,0,0,1,5.42-3.27c-.17,2.72.49,6.12,3.2,6.15,2.92,0,14.39,2.28,27.25-4.84s16.7-12.28,16.7-12.28,4.92-6.07,5.07-7.46a8,8,0,0,0-.91-3.6c1.25,0,2.89.09,4.18.2C63.62,19.86,64,19.7,63.47,19.27Z" style="fill:#f297a6"/></svg>