<svg xmlns="http://www.w3.org/2000/svg" viewBox="0 0 15.22 12.84"><defs><style>.cls-1{fill:#f297a6;}</style></defs><title>meatSmall</title><g id="Lager_2" data-name="Lager 2"><g id="Lager_1-2" data-name="Lager 1"><path class="cls-1" d="M13.07,10.71a2.12,2.12,0,0,0-1.32-2.35c-1-.34-2.28,0-4.5-1.66S5,3.65,4.42,2.83A2.11,2.11,0,0,0,1.8,2.2C.81,2.62,0,4.16.36,4.88a11.11,11.11,0,0,0,4,5.62h0l0,0,0,0h0a11.11,11.11,0,0,0,6.48,2.29C11.67,12.94,12.94,11.78,13.07,10.71Z"/><path class="cls-1" d="M1.44,1.69a3.54,3.54,0,0,1,.94-.25L3,.68A.43.43,0,0,0,2.56,0L.36.31a.42.42,0,0,0-.19.75l1,.76A1.66,1.66,0,0,1,1.44,1.69Z"/><path class="cls-1" d="M13.6,10.87a3.41,3.41,0,0,0,0-1l.58-.77a.42.42,0,0,1,.75.19l.31,2.2a.42.42,0,0,1-.67.4l-1-.76A1.59,1.59,0,0,0,13.6,10.87Z"/></g></g></svg>