<svg id="b5b06dfc-9276-4a38-93da-6535f5503dfc" data-name="Lager 1" xmlns="http://www.w3.org/2000/svg" viewBox="0 0 68 65"><rect x="11.9" y="10.29" width="44.39" height="44.39" rx="21.79" style="fill:#e6ead0"/><path d="M46.11,5V59.57s-.39,1.52-2.72,1.52-2.71-1.52-2.71-1.52l.78-24.7s-3.1-.31-3.1-1.83c0,0,.38-12.5.38-14.64,0-3.66,2.72-14.33,5.82-14.33C44.56,4.07,46.11,4.07,46.11,5Z" style="fill:#78b5b9"/><path d="M32.39,20.84,31.23,4.07H30.07v11a.36.36,0,0,1-.39.3.36.36,0,0,1-.39-.3v-11H27.55v11a.36.36,0,0,1-.39.3.36.36,0,0,1-.39-.3v-11H25v11a.36.36,0,0,1-.39.3.35.35,0,0,1-.38-.3v-11H23.09l-.77,16.77s1.55,3.35,3.49,3.66L24.26,59a2.86,2.86,0,0,0,3.1,2.13A2.88,2.88,0,0,0,30.46,59L28.91,24.5C30.84,24.19,32.39,20.84,32.39,20.84Z" style="fill:#78b5b9"/></svg>