<svg xmlns="http://www.w3.org/2000/svg" viewBox="0 0 15.67 19.77"><defs><style>.cls-1{fill:#78b5b9;}</style></defs><title>miscSmall</title><g id="Lager_2" data-name="Lager 2"><g id="Lager_1-2" data-name="Lager 1"><g id="utensils"><path id="utensils-2" data-name="utensils" class="cls-1" d="M7.88.38c.29,2.19.49,3.82.61,5.46a4,4,0,0,1-2.61,4l.49,9a.92.92,0,0,1-.87,1s0-.39,0-.39H3s-.91,0-.36-.52v-.05l-.06-9a4,4,0,0,1-2.6-4A44.25,44.25,0,0,1,.62,1C.74.19,2.67,1,2.67,1V6.35s.33.12.37,0c0-1,.3-5.27.3-5.37C3.46.19,5,.19,5.15,1c0,.1.25,4.41.3,5.37,0,.12.56.13,1.22,0V1C6.16.18,7.76.19,7.87.38Zm4.43,11-.57,7a.91.91,0,0,0,.83,1h2.19a.9.9,0,0,0,.91-.9h0V.91A.91.91,0,0,0,14.76,0c-3.12,0-8.38,6.76-2.45,11.39Z"/></g></g></g></svg>