<svg id="ae159bbd-0c4a-4e9f-9752-21dc5003310f" data-name="Lager 1" xmlns="http://www.w3.org/2000/svg" viewBox="0 0 68 65"><rect x="11.9" y="10.29" width="44.39" height="44.39" rx="21.79" style="fill:#e6ead0"/><path d="M16.57,60.37,20,46.71s7.77-16.84,11.9-22.5S38,15.39,38,15.39l3.86,1.24s5.14,3.52,5.44,5.14-1.88,7.91-3.58,9.34S26.39,51.54,26.39,51.54Z" style="fill:#f79161"/><path d="M43.43,19.14c.4-1.14.78-2.36,1.11-3.65A47.21,47.21,0,0,0,46,2" style="fill:none;stroke:#6e9a5b;stroke-miterlimit:10;stroke-width:1.7506082776456955px"/><path d="M41.53,21.29a80.57,80.57,0,0,0,4.73-9.88A80.32,80.32,0,0,0,49.66.71" style="fill:none;stroke:#6e9a5b;stroke-miterlimit:10;stroke-width:1.7506082776456955px"/><path d="M41.39,20.91c1.82-2.67,3.68-5.58,5.51-8.72S50.51,5.72,52,2.7" style="fill:none;stroke:#6e9a5b;stroke-miterlimit:10;stroke-width:1.7506082776456955px"/><path d="M43.08,20.18c1.65-2,3.32-4.09,5-6.25,2.63-3.41,5.08-6.77,7.36-10" style="fill:none;stroke:#6e9a5b;stroke-miterlimit:10;stroke-width:1.7506082776456955px"/><path d="M42,21.78a14.32,14.32,0,0,1,7.07-8.59,12.89,12.89,0,0,1,5.36-1.28" style="fill:none;stroke:#6e9a5b;stroke-miterlimit:10;stroke-width:1.7506082776456955px"/><path d="M30.13,28a5,5,0,0,0,3.07,4.47" style="fill:none;stroke:#fff;stroke-miterlimit:10;stroke-width:0.6996478694701488px"/><path d="M34.24,38.11a5,5,0,0,0,5.23-1.4" style="fill:none;stroke:#fff;stroke-miterlimit:10;stroke-width:0.6996478694701488px"/><path d="M26.08,32.58a5.8,5.8,0,0,0,2.52,5.26" style="fill:none;stroke:#fff;stroke-miterlimit:10;stroke-width:0.6996478694701488px"/><path d="M23.35,43.44a5,5,0,0,0,1.46,3.36,4.83,4.83,0,0,0,2.63,1.33" style="fill:none;stroke:#fff;stroke-miterlimit:10;stroke-width:0.6996478694701488px"/></svg>