<svg xmlns="http://www.w3.org/2000/svg" viewBox="0 0 15.99 16.11"><defs><style>.cls-1{fill:#f79161;}</style></defs><title>vegSmall</title><g id="Lager_2" data-name="Lager 2"><g id="Lager_1-2" data-name="Lager 1"><g id="carrot"><path id="carrot-2" data-name="carrot" class="cls-1" d="M9.31,5A3.88,3.88,0,0,0,4.62,6L6.35,7.75a.5.5,0,0,1-.67.75l0,0L4.07,6.89l-4,8.21a.72.72,0,0,0,0,.61A.7.7,0,0,0,1,16H1l4.17-2L3.65,12.46a.5.5,0,0,1,0-.71.5.5,0,0,1,.7,0l1.78,1.78L9.22,12A3.94,3.94,0,0,0,11.48,9,3.89,3.89,0,0,0,9.32,5Zm2.88-1.2A3.1,3.1,0,0,0,11.25,0a3.11,3.11,0,0,0-.62,4.34,3.6,3.6,0,0,0,.37.41l.25.25a3.11,3.11,0,0,0,4.38.16A3.52,3.52,0,0,0,16,4.75a3.1,3.1,0,0,0-3.8-.94Z"/></g></g></g></svg>